<svg width="9" height="12" viewBox="0 0 9 12" fill="none" xmlns="http://www.w3.org/2000/svg">
<path fill-rule="evenodd" clip-rule="evenodd" d="M6.59524 0.263607C6.76257 0.127498 6.96745 0.0397144 7.18567 0.010636C7.40389 -0.0184424 7.62632 0.0124002 7.82666 0.0995166C8.027 0.186633 8.19687 0.32638 8.3162 0.502237C8.43552 0.678093 8.4993 0.882705 8.5 1.09188V10.9081C8.4993 11.1173 8.43552 11.3219 8.3162 11.4978C8.19687 11.6736 8.027 11.8134 7.82666 11.9005C7.62632 11.9876 7.40389 12.0184 7.18567 11.9894C6.96745 11.9603 6.76257 11.8725 6.59524 11.7364L1.04851 7.2004C0.876472 7.05959 0.738426 6.88525 0.643772 6.68923C0.549118 6.49322 0.500081 6.28015 0.5 6.06452V5.93848C0.500081 5.72286 0.549118 5.50978 0.643772 5.31377C0.738426 5.11775 0.876472 4.94341 1.04851 4.80261L6.59524 0.263607Z" fill="#fff"/>
</svg>
