<svg width="40" height="48" viewBox="0 0 40 48" fill="none" xmlns="http://www.w3.org/2000/svg">
<path fill-rule="evenodd" clip-rule="evenodd" d="M37.2 29.04C37.2354 28.9078 37.2532 28.7656 37.2533 28.6133C37.2575 28.3514 37.222 28.1025 37.1467 27.8667C37.0267 27.4491 36.8223 27.0758 36.5333 26.7467C31.0197 20.5666 25.5174 14.3799 20.0267 8.18667C19.8675 8.31915 19.7164 8.46133 19.5733 8.61333C14.3822 14.4444 9.19108 20.2756 3.99998 26.1067C3.53092 26.6003 3.18425 27.1692 2.95998 27.8133C2.88404 27.9208 2.84852 28.0452 2.85332 28.1867C2.78308 28.642 2.78308 29.1043 2.85332 29.5733C2.83486 29.6371 2.8082 29.6371 2.77332 29.5733C2.05886 28.5889 1.49886 27.5222 1.09332 26.3733C1.09814 26.2319 1.06259 26.1075 0.98665 26C0.667424 24.7938 0.711866 23.6027 1.11998 22.4267C1.27107 22.1243 1.44884 21.8398 1.65332 21.5733C7.78137 14.7034 13.8969 7.82336 20 0.933334C26.1908 7.90613 32.3419 14.9106 38.4533 21.9467C39.1531 23.1869 39.3131 24.5025 38.9333 25.8933C38.5906 27.2366 38.0039 28.4633 37.1733 29.5733C37.1758 29.3973 37.1846 29.2195 37.2 29.04Z" fill="#FBCD76"/>
<path fill-rule="evenodd" clip-rule="evenodd" d="M19.92 11.6533C20.6662 12.5582 21.2351 13.5716 21.6267 14.6933C21.6219 14.8348 21.6574 14.9592 21.7333 15.0667C22.3348 17.1226 21.9348 18.9537 20.5333 20.56C17.3491 24.0819 14.1847 27.6197 11.04 31.1733C10.6612 31.7291 10.3945 32.3335 10.24 32.9867C10.1965 33.4216 10.2143 33.8483 10.2933 34.2667C9.61118 33.3645 9.069 32.3867 8.66665 31.3333C8.57977 31.0191 8.4731 30.7169 8.34665 30.4267C8.3107 30.1034 8.25737 29.7834 8.18665 29.4667C8.17225 28.8411 8.20782 28.2188 8.29332 27.6C8.45886 26.8776 8.77001 26.2198 9.22665 25.6267C12.3358 22.1085 15.4647 18.6063 18.6133 15.12C19.0719 14.5582 19.4186 13.9359 19.6533 13.2533C19.7621 13.0596 19.8244 12.8463 19.84 12.6133C19.8492 12.2837 19.8758 11.9637 19.92 11.6533Z" fill="#FBCD76"/>
<path fill-rule="evenodd" clip-rule="evenodd" d="M19.92 11.6533C19.8758 11.9637 19.8492 12.2837 19.84 12.6133C19.8244 12.8463 19.7621 13.0596 19.6533 13.2533C19.7764 12.6926 19.8386 12.1237 19.84 11.5467C19.8782 11.5757 19.9049 11.6113 19.92 11.6533Z" fill="#FBCD76"/>
<path fill-rule="evenodd" clip-rule="evenodd" d="M21.6267 14.6933C21.7026 14.8008 21.7381 14.9252 21.7333 15.0667C21.6574 14.9592 21.6219 14.8348 21.6267 14.6933Z" fill="#FBCD76"/>
<path fill-rule="evenodd" clip-rule="evenodd" d="M27.44 22.16C27.4564 22.3659 27.492 22.5614 27.5467 22.7467C27.6847 24.3324 27.2491 25.7369 26.24 26.96C23.0933 30.4267 19.9467 33.8933 16.8 37.36C16.2347 38.1228 15.9057 38.9761 15.8133 39.92C15.8213 40.2164 15.8657 40.5008 15.9467 40.7733C15.0567 39.6156 14.4078 38.3356 14 36.9333C14.0048 36.7919 13.9693 36.6675 13.8933 36.56C13.5253 34.7443 13.943 33.1443 15.1467 31.76C18.2201 28.2419 21.3135 24.7397 24.4267 21.2533C25.1335 20.3294 25.4535 19.2805 25.3867 18.1067C26.4238 19.2742 27.1083 20.6253 27.44 22.16Z" fill="#FBCD76"/>
<path fill-rule="evenodd" clip-rule="evenodd" d="M27.44 22.16C27.5316 22.3384 27.5671 22.5339 27.5467 22.7467C27.492 22.5614 27.4564 22.3659 27.44 22.16Z" fill="#FBCD76"/>
<path fill-rule="evenodd" clip-rule="evenodd" d="M19.5467 43.76C19.4731 43.4521 19.402 43.1498 19.3333 42.8533C19.2223 42.2088 19.2045 41.5688 19.28 40.9333C19.3476 40.8051 19.3832 40.6628 19.3867 40.5067C19.3867 40.4889 19.3867 40.4711 19.3867 40.4533C19.4626 40.3459 19.4981 40.2214 19.4933 40.08C19.7471 39.3949 20.1116 38.7727 20.5867 38.2133C23.68 34.7644 26.7733 31.3156 29.8667 27.8667C30.3601 27.2351 30.6801 26.5241 30.8267 25.7333C30.8571 25.2861 30.8571 24.8416 30.8267 24.4C31.8746 25.6069 32.5857 26.9936 32.96 28.56C33.2424 30.081 32.958 31.4854 32.1067 32.7733C28.8909 36.4834 25.6376 40.1634 22.3467 43.8133C21.87 44.3975 21.5322 45.0553 21.3333 45.7867C21.2977 46.1422 21.2977 46.4978 21.3333 46.8533C21.4027 46.9548 21.4383 47.0614 21.44 47.1733C20.6117 46.1417 19.9806 45.0039 19.5467 43.76Z" fill="#FBCD76"/>
<path fill-rule="evenodd" clip-rule="evenodd" d="M1.09332 26.3733C1.09814 26.2319 1.06259 26.1075 0.98665 26C0.981824 26.1414 1.01738 26.2659 1.09332 26.3733Z" fill="#FBCD76"/>
<path fill-rule="evenodd" clip-rule="evenodd" d="M2.95998 27.8133C2.96478 27.9548 2.92926 28.0792 2.85332 28.1867C2.84852 28.0452 2.88404 27.9208 2.95998 27.8133Z" fill="#FBCD76"/>
<path fill-rule="evenodd" clip-rule="evenodd" d="M8.29332 27.6C8.20782 28.2188 8.17225 28.8411 8.18665 29.4667C8.12494 29.0317 8.11609 28.5872 8.15998 28.1333C8.17657 27.9419 8.221 27.7641 8.29332 27.6Z" fill="#FBCD76"/>
<path fill-rule="evenodd" clip-rule="evenodd" d="M37.1467 27.8667C37.222 28.1025 37.2575 28.3514 37.2533 28.6133C37.2532 28.7656 37.2354 28.9078 37.2 29.04C37.1931 28.6483 37.1753 28.2572 37.1467 27.8667Z" fill="#FBCD76"/>
<path fill-rule="evenodd" clip-rule="evenodd" d="M8.66665 31.3333C8.57977 31.0191 8.4731 30.7169 8.34665 30.4267C8.39156 30.7573 8.49822 31.0596 8.66665 31.3333Z" fill="#FBCD76"/>
<path fill-rule="evenodd" clip-rule="evenodd" d="M14 36.9333C14.0048 36.7919 13.9693 36.6675 13.8933 36.56C13.8885 36.7014 13.924 36.8259 14 36.9333Z" fill="#FBCD76"/>
<path fill-rule="evenodd" clip-rule="evenodd" d="M19.3867 40.4533C19.4626 40.3459 19.4981 40.2214 19.4933 40.08C19.4174 40.1875 19.3819 40.3119 19.3867 40.4533Z" fill="#FBCD76"/>
<path fill-rule="evenodd" clip-rule="evenodd" d="M19.28 40.9333C19.3476 40.8051 19.3832 40.6628 19.3867 40.5067C19.3045 40.6314 19.269 40.7736 19.28 40.9333Z" fill="#FBCD76"/>
<path fill-rule="evenodd" clip-rule="evenodd" d="M19.5467 43.76C19.4731 43.4521 19.402 43.1498 19.3333 42.8533C19.3186 43.1811 19.3897 43.4833 19.5467 43.76Z" fill="#FBCD76"/>
</svg>
