<svg width="14" height="14" viewBox="0 0 14 14" fill="none" xmlns="http://www.w3.org/2000/svg">
<path fill-rule="evenodd" clip-rule="evenodd" d="M10.5 6C10.5 6.59094 10.3836 7.17611 10.1575 7.72207C9.93133 8.26804 9.59986 8.76411 9.182 9.18198C8.76414 9.59984 8.26806 9.93131 7.72209 10.1575C7.17613 10.3836 6.59097 10.5 6.00002 10.5C5.40907 10.5 4.82391 10.3836 4.27794 10.1575C3.73198 9.93131 3.2359 9.59984 2.81804 9.18198C2.40018 8.76411 2.06871 8.26804 1.84256 7.72207C1.61642 7.17611 1.50002 6.59094 1.50002 6C1.50002 4.80652 1.97413 3.66193 2.81804 2.81802C3.66195 1.9741 4.80654 1.5 6.00002 1.5C7.19349 1.5 8.33809 1.9741 9.182 2.81802C10.0259 3.66193 10.5 4.80652 10.5 6ZM9.68002 10.74C8.4744 11.676 6.95739 12.1173 5.43782 11.9741C3.91825 11.831 2.51036 11.1141 1.50077 9.96939C0.491174 8.82471 -0.0442298 7.33829 0.00355432 5.81275C0.0513384 4.2872 0.678718 2.8372 1.75797 1.75795C2.83723 0.678695 4.28722 0.0513156 5.81277 0.00353143C7.33832 -0.0442527 8.82473 0.491151 9.96942 1.50075C11.1141 2.51034 11.831 3.91823 11.9742 5.4378C12.1173 6.95736 11.676 8.47437 10.74 9.68L13.53 12.47C13.6037 12.5387 13.6628 12.6215 13.7038 12.7135C13.7448 12.8055 13.7668 12.9048 13.7686 13.0055C13.7704 13.1062 13.7519 13.2062 13.7141 13.2996C13.6764 13.393 13.6203 13.4778 13.5491 13.549C13.4778 13.6203 13.393 13.6764 13.2996 13.7141C13.2062 13.7518 13.1062 13.7704 13.0055 13.7686C12.9048 13.7668 12.8055 13.7448 12.7135 13.7038C12.6215 13.6628 12.5387 13.6037 12.47 13.53L9.68002 10.74Z" fill="#C4CDCC"/>
</svg>
